<svg width="34" height="35" viewBox="0 0 34 35" fill="none" xmlns="http://www.w3.org/2000/svg">
<path d="M1.34668 12.1024L16.8623 21.5773M1.34668 12.1024V24.2845L16.8623 33.7594M1.34668 12.1024L5.26332 9.63529M16.8623 21.5773V33.7594M16.8623 21.5773L32.3779 12.1024M16.8623 33.7594L32.3779 24.2845V12.1024M32.3779 12.1024L28.5562 9.69733M23.2321 6.34676L20.8039 4.81873M13.268 4.59736L10.4861 6.34822M20.8029 13.7136C20.8029 12.432 19.119 11.3931 17.0418 11.3931C14.9646 11.3931 13.2807 12.432 13.2807 13.7136M20.8029 13.7136C20.8029 14.9951 19.119 16.034 17.0418 16.034C14.9646 16.034 13.2807 14.9951 13.2807 13.7136M20.8029 13.7136C20.8029 13.7595 20.8007 16.1167 20.7964 16.162C20.6816 17.3796 19.0445 18.3454 17.0418 18.3454C15.027 18.3454 13.3821 17.3679 13.2852 16.1398C13.2822 16.1019 13.2807 13.7521 13.2807 13.7136M20.8029 3.88406C20.8029 2.60248 19.119 1.5636 17.0418 1.5636C14.9646 1.5636 13.2807 2.60248 13.2807 3.88406M20.8029 3.88406C20.8029 5.16558 19.119 6.20446 17.0418 6.20446C14.9646 6.20446 13.2807 5.16558 13.2807 3.88406M20.8029 3.88406C20.8029 3.93003 20.8007 6.28719 20.7964 6.33251C20.6816 7.55015 19.0445 8.51587 17.0418 8.51587C15.027 8.51587 13.3821 7.53845 13.2852 6.31029C13.2822 6.27243 13.2807 3.92258 13.2807 3.88406M12.7855 8.49263C12.7855 7.21104 11.1016 6.17216 9.02435 6.17216C6.94712 6.17216 5.26325 7.21104 5.26325 8.49263M12.7855 8.49263C12.7855 9.77415 11.1016 10.813 9.02435 10.813C6.94712 10.813 5.26325 9.77415 5.26325 8.49263M12.7855 8.49263C12.7855 8.5386 12.7832 10.8958 12.779 10.9411C12.6642 12.1587 11.027 13.1244 9.02435 13.1244C7.00954 13.1244 5.36468 12.147 5.26774 10.9188C5.26479 10.881 5.26325 8.53115 5.26325 8.49263M28.5283 8.49263C28.5283 7.21104 26.8444 6.17216 24.7672 6.17216C22.6899 6.17216 21.0061 7.21104 21.0061 8.49263M28.5283 8.49263C28.5283 9.77415 26.8444 10.813 24.7672 10.813C22.6899 10.813 21.0061 9.77415 21.0061 8.49263M28.5283 8.49263C28.5283 8.5386 28.5261 10.8958 28.5218 10.9411C28.407 12.1587 26.7698 13.1244 24.7672 13.1244C22.7524 13.1244 21.1075 12.147 21.0106 10.9188C21.0076 10.881 21.0061 8.53115 21.0061 8.49263" stroke="#8081BD" stroke-width="2" stroke-miterlimit="22.9256" stroke-linecap="round" stroke-linejoin="round"/>
</svg>
