<svg width="298" height="280" viewBox="0 0 298 280" fill="none" xmlns="http://www.w3.org/2000/svg">
<path d="M323.355 233.985C321.826 245.649 320.141 257.747 313.72 267.609C307.3 277.47 294.667 284.33 283.606 280.323C270.608 275.599 266.39 259.604 264.611 245.9C262.831 232.197 260.33 216.318 248.318 209.486C229.241 198.63 206.289 220.358 184.597 216.997C167.383 214.331 156.796 197.08 149.584 181.22C142.373 165.359 134.627 147.515 118.542 140.806C104.026 134.756 87.4205 139.927 71.7666 138.48C59.1072 137.333 46.5077 131.319 39.3735 120.81C32.2394 110.301 31.687 95.085 39.6938 85.215C50.1147 72.3761 70.6775 72.578 85.0635 80.7271C99.4495 88.8762 109.358 102.864 119.675 115.777C129.993 128.69 142.116 141.543 158.114 145.702C171.508 149.188 185.586 146.054 199.366 144.76C213.146 143.466 228.586 144.673 238.272 154.549C246.94 163.386 248.637 176.662 253.047 188.221C263.055 214.426 297.237 197.494 319.041 215.13C322.804 218.162 323.355 233.985 323.355 233.985Z" fill="#FDDC4E"/>
<path d="M284.097 268.87C280.768 274.829 290.326 279.49 293.647 273.544C296.969 267.599 287.422 262.917 284.097 268.87Z" fill="#EA5D4A"/>
<path d="M275.178 251.647C271.85 257.606 281.526 262.056 284.84 256.123C288.154 250.191 278.492 245.715 275.178 251.647Z" fill="#EA5D4A"/>
<path d="M273.307 230.613C269.978 236.572 279.466 241.359 282.791 235.407C286.116 229.454 276.632 224.66 273.307 230.613Z" fill="#EA5D4A"/>
<path d="M114.166 155.84C108.649 149.683 100.416 146.926 92.4366 145.83C84.0688 144.683 75.5354 145.076 67.2151 143.487C53.84 140.915 41.7074 133.086 33.3568 122.375C28.5995 116.304 25.168 109.303 23.284 101.824C22.9315 100.402 20.74 101.028 21.0962 102.443C24.4511 115.923 32.9302 127.757 44.1378 135.842C49.7787 139.93 56.1104 142.966 62.829 144.807C70.7068 146.94 78.8917 146.89 86.9704 147.529C96.176 148.249 106.123 150.27 112.55 157.474C113.529 158.568 115.118 156.937 114.148 155.857L114.166 155.84Z" fill="#FDDC4E"/>
</svg>
