<?xml version="1.0" encoding="UTF-8"?>
<!-- Generated by Pixelmator Pro 3.2.3 -->
<svg width="696" height="482" viewBox="0 0 696 482" xmlns="http://www.w3.org/2000/svg" xmlns:xlink="http://www.w3.org/1999/xlink">
    <path id="path1" fill="#f3acc8" stroke="none" d="M 54.184006 24.278015 C 67.160995 17.148987 80.063004 9.905029 94.001999 5.026001 C 116.964996 -3.010986 137.731995 -0.734985 155.661987 15.703003 C 167.406006 26.471008 191.115997 48.837036 194.610992 64.372009 C 200.565002 90.855957 191.112 109.265991 188.485992 136.282959 C 186.830994 153.297974 177.424988 167.113037 164.31601 178.52301 C 153.355011 188.059998 143.687012 195.532959 129.153992 195.817993 C 92.371994 196.552979 74.468994 186.757996 41.065994 171.338989 C -1.585007 151.648987 -4.054001 88.026001 5.138 73.619995 C 14.485992 58.952026 37.091995 33.664978 54.184006 24.278015 Z"/>
    <path id="path2" fill="#58bbae" stroke="none" d="M 154.987 209.511993 C 184.291992 212.411011 208.743011 232.92099 214.506012 254.437988 C 219.382996 272.64801 202.645996 302.815002 172.484985 350.213989 C 142.324005 397.614014 200.084991 445.27002 139.157013 472.06897 C 78.229004 498.867981 17.386993 467.383972 24.345001 405.031006 C 31.304001 342.677979 77.942001 201.971008 154.987 209.511993 Z"/>
    <path id="path3" fill="#f3acc8" stroke="none" d="M 696.010986 244.654999 C 643.30603 273.341003 590.594971 302.025024 537.877991 330.708008 C 535.117004 332.216003 532.10498 334 531.150024 337.005005 C 529.864014 341.031982 532.846985 345.072021 535.630005 348.26001 L 624.10498 449.689026 C 628.231018 454.460999 634.666992 459.629028 640.093994 456.466003 C 643.374023 454.52301 644.468994 450.372986 645.255981 446.656982 C 659.593018 378.137024 681.002991 319.994019 695.312012 251.44101 L 696.010986 244.654999 Z"/>
    <path id="path4" fill="#f3acc8" stroke="none" d="M 491.504028 375.375 L 499.091003 264.917999 C 482.14502 279.368988 465.192993 293.820007 448.234985 308.268005 C 459.883972 281.355988 466.304016 252.472992 467.153992 223.160004 C 431.953003 254.803009 394.547974 283.903992 355.220001 310.242981 C 378.732971 320.817017 404.411011 325.684021 430.161011 324.448975 L 372.551025 362.549988 C 412.861023 362.012024 453.077026 366.583984 492.237 376.156982"/>
    <path id="path5" fill="#ffffff" stroke="none" d="M 307.378998 163.575012 C 315.549988 150.296997 324.183014 136.372986 326.34201 120.68103 C 328.289001 106.868042 324.759003 90.932007 313.320007 81.976013 C 302.819 73.721008 288.475006 73.497986 276.191986 77.395996 C 260.082001 82.514038 247.643005 94.742004 235.338989 105.759033 C 212.609985 126.265015 185.61499 141.473999 156.299988 150.289001 C 126.984009 159.104004 96.078003 161.30603 65.809006 156.734985 C 58.233002 155.541992 50.787994 153.672974 43.209 152.48999 C 36.255997 151.408997 28.977997 150.790039 22.089996 152.455994 C 15.807007 153.900024 10.289001 157.634033 6.612 162.929993 C 3.251007 167.856995 1.917007 173.85498 1.710007 179.733032 C 1.227997 193.782959 6.337006 207.610962 10.669998 220.742004 C 16.401993 238.117004 23.048996 255.397003 32.798004 270.933014 C 48.065002 295.286987 72.751007 316.265015 102.507004 318.086975 C 133.244995 319.969971 160.695007 301.467987 183.681 283.221985 C 206.920013 264.776001 231.406006 247.709015 253.304993 227.643005 C 263.94101 217.890991 273.839996 207.365967 282.921997 196.153015 C 289.644989 187.868042 295.859009 179.208008 302.195007 170.612 L 307.286987 163.747986 C 307.990997 162.799011 306.661011 161.494019 305.947998 162.455994 C 293.747009 178.906006 281.885986 195.644043 267.868988 210.638 C 248.987 230.825012 226.996002 247.502014 205.091003 264.239014 C 192.765991 273.681 180.800995 283.687988 168.112 292.644989 C 155.798004 301.321991 142.485992 309.052979 127.928009 313.244019 C 113.903015 317.278992 99.156006 317.471985 85.238998 312.869019 C 71.733002 308.403015 59.729004 300.033997 49.847 289.902008 C 38.184006 277.946991 29.658005 263.348999 22.953003 248.136993 C 19.294998 239.838013 16.171997 231.31601 13.291 222.71701 C 10.789993 215.286987 8.261993 207.812012 6.296005 200.217041 C 3.363998 188.838013 1.134003 174.841003 7.893997 164.338989 C 16.296005 151.278992 33.162994 152.455994 46.509003 154.89801 C 53.682999 156.210999 60.781006 157.86499 68.011002 158.900024 C 75.139008 159.919006 82.317001 160.55603 89.514008 160.807983 C 133.727997 162.23999 177.270996 149.712036 213.963989 125 C 220.024994 120.877991 225.852997 116.424011 231.421997 111.656982 C 238.062012 105.968994 244.356995 99.89502 251.093994 94.327026 C 262.666992 84.755981 276.128998 76.749023 291.628998 76.744019 C 298.207001 76.648987 304.669006 78.47699 310.221985 82.004028 C 316.343994 86.041992 320.579987 92.369019 322.808014 99.295044 C 327.641998 114.155029 323.664001 129.541016 316.968994 143.10199 C 313.640015 149.849976 309.695007 156.270996 305.766998 162.664001 C 305.114014 163.68396 306.747986 164.589966 307.378998 163.575012 Z"/>
    <path id="path6" fill="#fddc4e" stroke="none" d="M 483.119995 22.401978 C 501.801025 38.55603 520.393982 56.028015 529.447998 79.040039 C 538.500977 102.052002 537.705017 129.849976 523.059021 149.723022 C 508.629028 169.348999 483.768982 178.273987 459.789001 182.541992 C 435.807983 186.809998 410.989014 187.567017 388.049011 195.759033 C 340.855011 212.60199 307.928986 262.914001 311.377991 312.900024 C 312.40799 327.835999 316.321991 342.539978 316.234985 357.512024 C 316.14801 372.484985 311.050995 388.659973 298.410004 396.685974 C 286.697998 404.129028 271.612 402.851013 257.921997 400.526978 C 229.386993 395.677979 200.890991 387.192993 177.162994 370.609985 C 153.43399 354.028015 134.903015 328.450989 131.773987 299.669006 C 128.502014 269.688995 142.480011 239.367004 164.622986 218.885986 C 186.765991 198.405029 216.183014 187.085999 246.002991 182.617004 C 274.115997 178.398987 307.597992 177.36499 323.127991 153.567993 C 332.769989 138.769043 331.820007 119.794006 333.977997 102.260986 C 336.135986 84.729004 344.605988 64.94397 361.898987 61.311035 C 382.601013 56.993042 406.906006 77.884033 423.070984 64.252014 C 440.52002 49.537964 423.804993 11.737 444.83197 2.938965 C 457.684021 -2.436035 474.995972 15.380981 483.119995 22.401978 Z"/>
    <path id="path7" fill="#58bbae" stroke="none" d="M 608.125 59.781982 C 601.953979 48.19397 594.676025 36.958984 585.176025 27.799011 C 576.541992 19.47699 566.057007 12.958984 553.995972 11.275024 C 543.401978 9.817993 531.906982 11.697021 523.202026 18.203003 C 514.856995 24.419006 510.731995 33.942017 509.13501 43.985962 C 507.487976 54.244019 507.987 64.734009 506.559021 75.049011 C 505.955017 80.161987 504.59198 85.156006 502.515015 89.867004 C 499.661011 95.759033 495.606018 100.989014 490.611023 105.221008 C 479.833008 114.625 466.218018 119.608032 452.953003 124.400024 C 439.687988 129.192017 426.143005 134.192993 414.893005 143.015015 C 405.263 150.424988 398.359009 160.817017 395.260986 172.567017 C 392.455994 183.604004 392.718018 195.197021 396.018982 206.096008 C 403.432983 230.643005 425.205994 248.468994 449.138977 255.891998 C 461.250977 259.542999 473.890991 261.13501 486.530029 260.60199 C 500.007996 260.22699 513.343994 257.740997 526.051025 253.233002 C 538.825989 248.570007 550.744019 241.317993 559.632996 230.904999 C 568.054016 221.040985 573.557007 209.157013 577.906006 197.019043 C 580.117981 190.86499 581.981018 184.60498 584.007019 178.393005 C 585.96698 172.282959 588.906006 166.532959 592.708984 161.36499 C 598.807007 153.136963 607.002991 146.653992 612.627991 137.997986 C 619.481018 127.424011 622.515991 114.250977 622.051025 101.723022 C 621.671021 90.97699 618.440002 80.619995 613.856995 70.927979 C 612.070007 67.141968 610.078979 63.452026 608.091003 59.768005 C 607.432983 58.528015 605.559021 59.639038 606.21698 60.877991 C 610.554016 69.026978 614.817017 77.195007 617.336975 86.125 C 620.638977 97.747009 620.679993 110.052002 617.455994 121.695007 C 615.887024 127.502991 613.369995 133.011963 610.004028 137.999023 C 607.161987 142.162964 603.679993 145.846008 600.22699 149.47699 C 596.690979 153.072998 593.406982 156.906982 590.396973 160.953003 C 586.913025 165.849976 584.172974 171.234985 582.265015 176.93396 C 580.19397 183.013 578.442993 189.190002 576.291992 195.249023 C 574.195007 201.292969 571.708008 207.195007 568.846985 212.916992 C 562.854004 224.743988 554.533997 235.006012 543.367981 242.302002 C 531.922974 249.779999 518.684998 254.134003 505.288025 256.464996 C 492.955994 258.679993 480.367004 259.087006 467.91803 257.674988 C 443.015015 254.700012 418.705017 242.394012 405.088013 220.726013 C 393.052002 201.557007 391.724976 175.531006 404.88501 156.511963 C 412.575989 145.401001 424.620972 138.208008 436.789001 132.917969 C 450.174988 127.092041 464.434998 123.380981 477.427002 116.632996 C 488.289978 110.993042 498.562988 102.858032 504.067017 91.674011 C 508.567993 82.502014 509.291992 72.139038 509.822021 62.104004 C 510.338013 52.286987 510.504028 41.950989 514.494995 32.786011 C 518.737976 23.049011 527.177979 16.52301 537.455017 14.125 C 548.205994 11.679016 559.481018 13.247009 569.156006 18.533997 C 580.421997 24.731995 589.385986 34.353027 596.617004 44.838989 C 600.140991 50.01001 603.367981 55.377991 606.281006 60.915039 C 606.963989 62.096985 608.835022 60.980957 608.125 59.781982 Z"/>
    <path id="path8" fill="#fddc4e" stroke="none" d="M 374.919006 220.743011 C 363.591003 226.415985 353.434998 234.174988 344.981995 243.612 C 336.460999 253.054993 329.675995 263.929993 324.940002 275.734985 C 320.197998 287.479004 317.691986 300.005005 317.553009 312.669006 C 317.433014 328.142029 321.065002 343.267029 322.514008 358.596008 C 323.768005 371.828979 323.390991 385.927002 317.552002 398.127991 C 316.855988 399.575012 316.087006 400.992981 315.243011 402.380981 C 314.514008 403.572021 316.415985 404.632019 317.152008 403.437012 C 324.131989 391.952026 325.752014 378.156982 325.144012 364.945984 C 324.453003 349.784973 320.862 334.914001 319.931 319.776978 C 319.169006 306.905029 320.911011 294.006989 325.062012 281.799011 C 329.128998 269.845001 335.30899 258.718994 343.308014 248.950012 C 351.26001 239.166992 360.985992 230.971008 371.973999 224.790985 C 373.310974 224.041992 374.676025 223.325989 376.046997 222.648987 C 377.304993 222.022003 376.189026 220.151001 374.937012 220.773987 L 374.919006 220.743011 Z"/>
</svg>
