<svg width="38" height="34" viewBox="0 0 38 34" fill="none" xmlns="http://www.w3.org/2000/svg">
<path d="M1.61035 20.4026H36.0572M1.61035 20.4026V24.0452H36.0572V20.4026M1.61035 20.4026L5.21335 13.1324H12.1169C11.6074 13.527 11.0367 14.0075 10.4346 14.5504M36.0572 20.4026L32.4542 13.1324H26.6549C27.2109 13.4776 27.781 13.8714 28.2494 14.2442M7.51862 17.3381C8.2165 16.6559 9.37429 15.5065 10.4346 14.5504M10.4346 14.5504C11.495 13.5943 12.4579 12.8316 13.1612 12.3911C13.8645 11.9506 14.3081 11.8325 14.7192 11.8218C15.1304 11.811 15.5091 11.9077 15.9257 12.1441C16.3422 12.3804 16.7967 12.7564 17.2457 13.1378M28.2494 14.2442C28.9581 14.8082 29.4342 15.3239 29.7479 15.7643C30.0617 16.2047 30.2132 16.5699 30.2998 16.8332M28.2494 14.2442C27.5408 13.6802 26.5994 13.0679 25.8257 12.6489C25.0521 12.23 24.4462 12.0044 23.9647 11.854C23.4832 11.7036 23.1262 11.6284 22.7204 11.6875C22.3147 11.7466 21.8603 11.9399 21.4058 12.2891C20.9515 12.6382 20.497 13.1431 20.0263 13.503M17.2457 13.1378L17.2394 13.1324H20.4632C20.3189 13.264 20.1733 13.3906 20.0263 13.503M17.2457 13.1378C17.6947 13.5191 18.1384 13.9058 18.6036 13.9918C19.0688 14.0777 19.5557 13.8629 20.0263 13.503M26.0235 12.7582L27.9473 5.49569M27.9473 5.49569L31.6206 5.02196L32.0872 3.26051L25.4506 1.52756L24.984 3.28901L27.9473 5.49569ZM4.1868 32.7591H33.4807V24.0452H4.1868V32.7591ZM13.4533 14.321C14.0289 14.321 14.4956 14.7844 14.4956 15.3559C14.4956 15.9274 14.0289 16.3907 13.4533 16.3907C12.8777 16.3907 12.411 15.9274 12.411 15.3559C12.411 14.7844 12.8777 14.321 13.4533 14.321ZM16.8941 16.3836C17.4697 16.3836 17.9364 16.847 17.9364 17.4185C17.9364 17.99 17.4697 18.4534 16.8941 18.4534C16.3185 18.4534 15.8518 17.99 15.8518 17.4185C15.8518 16.847 16.3185 16.3836 16.8941 16.3836ZM22.8341 13.2897C23.4097 13.2897 23.8764 13.7531 23.8764 14.3246C23.8764 14.8961 23.4097 15.3595 22.8341 15.3595C22.2584 15.3595 21.7918 14.8961 21.7918 14.3246C21.7918 13.7531 22.2584 13.2897 22.8341 13.2897ZM25.6581 15.8035C26.2337 15.8035 26.7004 16.2669 26.7004 16.8384C26.7004 17.4099 26.2337 17.8732 25.6581 17.8732C25.0824 17.8732 24.6158 17.4099 24.6158 16.8384C24.6158 16.2669 25.0824 15.8035 25.6581 15.8035Z" stroke="#8081BD" stroke-width="2" stroke-miterlimit="22.9256" stroke-linecap="round" stroke-linejoin="round"/>
</svg>
