<?xml version="1.0" encoding="UTF-8"?>
<!-- Generated by Pixelmator Pro 3.2.3 -->
<svg width="678" height="460" viewBox="0 0 678 460" xmlns="http://www.w3.org/2000/svg" xmlns:xlink="http://www.w3.org/1999/xlink">
    <path id="path1" fill="#58bbae" stroke="none" d="M 492.877991 338.769012 C 465.445984 328.057007 447.447998 301.701996 447.715027 279.428986 C 447.940979 260.578003 472.208008 236.057007 514.057007 198.572998 C 555.906006 161.088013 513.174011 99.595001 579.077026 90.26001 C 644.981018 80.924988 695.049988 127.679993 671.499023 185.832001 C 647.947998 243.984009 565.018005 366.851013 492.877991 338.769012 Z"/>
    <path id="path2" fill="#79bc6d" stroke="none" d="M 0.026299 162.739014 C 50.190002 151.269012 100.358002 139.803009 150.531998 128.338989 C 153.160995 127.733002 156.061005 126.959015 157.546005 124.699005 C 159.541 121.671997 158.014008 117.64502 156.455994 114.367981 L 106.914001 10.119019 C 104.613998 5.221985 100.498001 -0.536011 95.283997 0.817993 C 92.125 1.661987 90.259003 4.835022 88.748001 7.719971 C 61.031006 60.969971 29.877899 104.014008 2.176201 157.298004 L 0.026299 162.739014 Z"/>
    <path id="path3" fill="#79bc6d" stroke="none" d="M 213.709015 88.130005 L 176.552994 192.428009 C 196.77301 183.092987 217 173.761993 237.231995 164.43399 C 218.743011 187.196991 204.756012 213.269989 196.015991 241.261993 C 238.458008 220.309998 282.337006 202.401001 327.319 187.67099 C 307.539001 171.135986 284.131989 159.51001 259.006012 153.740997 L 324.769989 132.627014 C 285.813995 122.251007 248.330994 106.97998 213.214996 87.179993"/>
    <path id="path4" fill="#ea5d4a" stroke="none" d="M 333.742004 341.809998 C 322.286011 352.385986 310.210999 363.459015 303.891998 377.984009 C 298.283997 390.755981 297.376007 407.052979 305.968994 418.768005 C 313.847992 429.554016 327.597992 433.64502 340.477997 433.210999 C 357.371002 432.637024 372.652008 424.22699 387.476013 416.945007 C 414.901001 403.343994 445.000977 395.997009 475.607971 395.432983 C 506.215027 394.869019 536.565979 401.10199 564.473999 413.682007 C 571.445007 416.877991 578.107971 420.690979 585.085022 423.877991 C 591.487 426.797974 598.328003 429.359985 605.408997 429.617981 C 611.848022 429.926025 618.171021 427.820984 623.142029 423.71698 C 627.708984 419.880981 630.61499 414.468018 632.403015 408.864014 C 636.664001 395.46698 635.481995 380.77301 634.859009 366.959015 C 634.036011 348.682007 632.30603 330.247986 627.119019 312.656006 C 619.002014 285.082001 600.903992 258.213013 572.747986 248.416992 C 543.663025 238.296997 512.234009 248.691986 485.171997 260.04599 C 457.812988 271.526001 429.625 281.338989 403.118011 294.740997 C 390.243011 301.255005 377.868011 308.713989 366.092987 317.054993 C 357.381012 323.214996 349.058014 329.872986 340.63501 336.437012 L 333.877014 341.669006 C 332.942993 342.391998 333.871002 344.007996 334.816986 343.274994 C 351.009003 330.734009 366.953003 317.825012 384.5 307.177002 C 408.135986 292.843994 433.815002 282.730988 459.427979 272.536987 C 473.846008 266.777008 488.070984 260.377014 502.708008 255.182007 C 516.908997 250.156006 531.815979 246.309998 546.963989 246.209015 C 561.557983 246.11499 575.809021 249.914001 587.963013 258.106995 C 599.76001 266.058014 609.054993 277.359985 615.830994 289.785004 C 623.828979 304.446991 628.093018 320.806 630.437012 337.264008 C 631.716003 346.243011 632.419006 355.291992 632.869019 364.348999 C 633.27002 372.178986 633.682983 380.057983 633.52301 387.903015 C 633.270996 399.650024 631.63501 413.729004 622.288025 422.013 C 610.669983 432.317017 594.749023 426.625977 582.559021 420.666992 C 576.005981 417.463989 569.619995 413.953979 562.939026 411.002991 C 556.351013 408.094971 549.612 405.541992 542.752014 403.35498 C 500.570007 390.026978 455.260986 390.320984 413.256012 404.195984 C 406.306 406.526978 399.490997 409.241028 392.841003 412.325012 C 384.910004 416.007019 377.209015 420.153015 369.217987 423.692993 C 355.488007 429.781006 340.363007 433.851013 325.437988 429.666992 C 319.079987 427.981018 313.35199 424.473999 308.959015 419.578003 C 304.157013 414.036011 301.787994 406.799011 301.514008 399.528992 C 300.876007 383.916016 308.864014 370.177002 318.976013 358.929993 C 324.005005 353.333008 329.537994 348.21701 335.046997 343.122986 C 335.951996 342.316986 334.623993 341.003998 333.742004 341.809998 Z"/>
    <path id="path5" fill="#fddc4e" stroke="none" d="M 126.386993 430.234009 C 112.766998 409.632996 99.587997 387.786011 97.089996 363.18399 C 94.593002 338.582001 102.871994 312.03299 122.343994 296.858002 C 141.541 281.862 167.888 279.988007 192.130005 282.359009 C 216.371002 284.730988 240.471985 290.709991 264.770996 289.022003 C 314.760986 285.561005 360.059998 246.019989 370.247986 196.962006 C 373.292999 182.303986 373.497986 167.088989 377.628998 152.696991 C 381.759003 138.304993 391.037994 124.109009 405.377014 119.798004 C 418.664001 115.798004 432.843994 121.105011 445.395996 127.041992 C 471.559998 139.423004 496.700989 155.292999 515.065002 177.671997 C 533.429016 200.049988 544.359009 229.683014 539.59198 258.23999 C 534.640015 287.989014 512.987976 313.403992 486.133972 327.139008 C 459.278992 340.872986 427.89801 343.821014 397.980011 340.065002 C 369.773987 336.528015 337.256989 328.475006 315.875 347.188995 C 302.59201 358.832001 298.377991 377.356995 291.562012 393.653992 C 284.746002 409.950989 271.243988 426.710022 253.612 425.534973 C 232.514008 424.096985 214.759003 397.414978 195.511993 406.171021 C 174.735992 415.622009 180.613007 456.53302 157.990005 459.320984 C 144.164001 461.02301 132.311996 439.190002 126.386993 430.234009 Z"/>
    <path id="path6" fill="#58bbae" stroke="none" d="M 16.1362 360.463013 C 18.945198 373.286011 22.9161 386.070984 29.5877 397.45697 C 35.651001 407.802979 43.984001 416.911011 55.141998 421.79303 C 64.947006 426.059021 76.522995 427.356018 86.662003 423.445007 C 96.376007 419.716003 102.921005 411.661011 107.173004 402.422974 C 111.531006 392.992004 113.886002 382.757019 118.048004 373.212006 C 120.011993 368.453003 122.673996 364.013 125.945999 360.039001 C 130.287003 355.138 135.604996 351.197998 141.557007 348.472992 C 154.475998 342.332001 168.931 341.213989 182.996994 340.184998 C 197.062988 339.156006 211.457001 338.002991 224.67099 332.549011 C 235.946991 328.018005 245.402008 319.877991 251.559998 309.402008 C 257.243011 299.533997 260.123993 288.302002 259.891998 276.916992 C 259.386993 251.278992 243.243011 228.231995 222.205994 214.618011 C 211.531006 207.82901 199.791992 202.880005 187.479004 199.97699 C 174.401993 196.695007 160.889999 195.484985 147.438004 196.391998 C 133.876999 197.428009 120.444 201.188995 109.070999 208.812012 C 98.298004 216.033997 89.787994 225.988007 82.320007 236.498993 C 78.526993 241.825989 75.042007 247.348999 71.412003 252.78299 C 67.873993 258.135986 63.490005 262.877991 58.431999 266.825989 C 50.336998 273.098999 40.694 277.126007 32.939003 283.940002 C 23.483299 292.268005 17.001297 304.131012 14.063202 316.317993 C 11.5252 326.766998 11.836502 337.612 13.629997 348.182007 C 14.326797 352.309998 15.246696 356.401001 16.164703 360.484985 C 16.463203 361.855988 18.567902 361.294006 18.269402 359.923004 C 16.296402 350.903992 14.3992 341.888 14.386101 332.609009 C 14.348 320.528015 17.6343 308.670013 23.8853 298.330994 C 26.964699 293.162994 30.877602 288.540009 35.466003 284.64801 C 39.327003 281.407013 43.675003 278.802002 47.981003 276.239014 C 52.357002 273.733002 56.555 270.928986 60.546005 267.846985 C 65.223999 264.074005 69.317993 259.630005 72.695007 254.65799 C 76.332001 249.36499 79.688004 243.890991 83.395996 238.639008 C 87.048004 233.386993 91.037994 228.377014 95.339005 223.640991 C 104.304993 213.872986 115.089005 206.242004 127.811005 202.234985 C 140.852005 198.127991 154.772995 197.514008 168.300995 198.890991 C 180.772995 200.091003 193.003998 203.101013 204.608002 207.825989 C 227.779999 217.420013 247.859985 235.838013 255.114014 260.380005 C 261.520996 282.088989 255.765991 307.505005 237.954987 322.259003 C 227.548004 330.878998 214.006012 334.548004 200.862 336.352997 C 186.399002 338.343994 171.667007 338.062988 157.335007 341.049011 C 145.352005 343.544006 133.263 348.598999 124.940994 357.878998 C 118.128998 365.493988 114.630997 375.274994 111.408005 384.794006 C 108.259003 394.106018 105.304993 404.012024 98.985992 411.757996 C 92.270004 419.986023 82.380005 423.987976 71.837006 423.518982 C 60.824997 422.968994 50.393997 418.411987 42.507004 410.70697 C 33.334999 401.695007 27.305298 390.008972 23.177002 377.958984 C 21.181999 372.028015 19.526199 365.988007 18.2174 359.868988 C 17.879204 358.54599 15.776398 359.115997 16.1362 360.463013 Z"/>
    <path id="path7" fill="#fddc4e" stroke="none" d="M 284.165009 268.516998 C 296.605011 266.115997 308.480011 261.390991 319.167999 254.589996 C 329.924988 247.800995 339.397003 239.164001 347.145996 229.078003 C 354.885986 219.053009 360.683014 207.670013 364.23999 195.515015 C 368.536987 180.649994 369.127991 165.106995 371.876007 149.957001 C 374.244995 136.877014 378.417999 123.406006 387.337006 113.237 C 388.39801 112.031982 389.522003 110.873993 390.709015 109.765991 C 391.733002 108.815979 390.188995 107.281982 389.15799 108.233002 C 379.333008 117.403992 374.045013 130.248993 371.059998 143.131989 C 367.627991 157.915985 367.066986 173.203003 363.871002 188.028992 C 361.127014 200.627991 355.963013 212.575012 348.666992 223.207001 C 341.520996 233.617004 332.565002 242.658997 322.222992 249.903015 C 311.923004 257.171997 300.343994 262.43399 288.095001 265.415009 C 286.605011 265.774994 285.096985 266.096008 283.593994 266.377014 C 282.213013 266.640015 282.78299 268.743011 284.156006 268.480988 L 284.165009 268.516998 Z"/>
</svg>
