<svg width="939" height="931" viewBox="0 0 939 931" fill="none" xmlns="http://www.w3.org/2000/svg">
<path d="M202.184 234.278C215.161 227.149 228.063 219.905 242.002 215.026C264.965 206.989 285.732 209.265 303.662 225.703C315.406 236.471 339.116 258.837 342.611 274.372C348.565 300.856 339.112 319.266 336.486 346.283C334.831 363.298 325.425 377.113 312.316 388.523C301.355 398.06 291.687 405.533 277.154 405.818C240.372 406.553 222.469 396.758 189.066 381.339C146.415 361.649 143.946 298.026 153.138 283.62C162.486 268.952 185.092 243.665 202.184 234.278Z" fill="#F3ACC8"/>
<path d="M302.987 419.512C332.292 422.411 356.743 442.921 362.506 464.438C367.383 482.648 350.646 512.815 320.485 560.214C290.324 607.614 348.085 655.27 287.157 682.069C226.229 708.868 165.387 677.384 172.345 615.031C179.304 552.678 225.942 411.971 302.987 419.512Z" fill="#58BBAE"/>
<path d="M844.011 454.655C791.306 483.341 738.595 512.025 685.878 540.708C683.117 542.216 680.105 544 679.15 547.005C677.864 551.032 680.847 555.072 683.63 558.26L772.105 659.689C776.231 664.461 782.667 669.629 788.094 666.466C791.374 664.523 792.469 660.373 793.256 656.657C807.593 588.137 829.003 529.994 843.312 461.441L844.011 454.655Z" fill="#F3ACC8"/>
<path d="M639.504 585.375L647.091 474.918C630.145 489.369 613.193 503.82 596.235 518.268C607.884 491.356 614.304 462.473 615.154 433.16C579.953 464.803 542.548 493.904 503.22 520.243C526.733 530.817 552.411 535.684 578.161 534.449L520.551 572.55C560.861 572.012 601.077 576.584 640.237 586.157" fill="#F3ACC8"/>
<path d="M455.379 373.575C463.55 360.297 472.183 346.373 474.342 330.681C476.289 316.868 472.759 300.932 461.32 291.976C450.819 283.721 436.475 283.498 424.192 287.396C408.082 292.514 395.643 304.742 383.339 315.759C360.61 336.265 333.615 351.474 304.3 360.289C274.984 369.104 244.078 371.306 213.809 366.735C206.233 365.542 198.788 363.673 191.209 362.49C184.256 361.409 176.978 360.79 170.09 362.456C163.807 363.9 158.289 367.634 154.612 372.93C151.251 377.857 149.917 383.855 149.71 389.733C149.228 403.783 154.337 417.611 158.67 430.742C164.402 448.117 171.049 465.397 180.798 480.933C196.065 505.287 220.751 526.265 250.507 528.087C281.245 529.97 308.695 511.468 331.681 493.222C354.92 474.776 379.406 457.709 401.305 437.643C411.941 427.891 421.84 417.366 430.922 406.153C437.645 397.868 443.859 389.208 450.195 380.612L455.287 373.748C455.991 372.799 454.661 371.494 453.948 372.456C441.747 388.906 429.886 405.644 415.869 420.638C396.987 440.825 374.996 457.502 353.091 474.239C340.766 483.681 328.801 493.688 316.112 502.645C303.798 511.322 290.486 519.053 275.928 523.244C261.903 527.279 247.156 527.472 233.239 522.869C219.733 518.403 207.729 510.034 197.847 499.902C186.184 487.947 177.658 473.349 170.953 458.137C167.295 449.838 164.172 441.316 161.291 432.717C158.79 425.287 156.262 417.812 154.296 410.217C151.364 398.838 149.134 384.841 155.894 374.339C164.296 361.279 181.163 362.456 194.509 364.898C201.683 366.211 208.781 367.865 216.011 368.9C223.139 369.919 230.317 370.556 237.514 370.808C281.728 372.24 325.271 359.712 361.964 335C368.025 330.878 373.853 326.424 379.422 321.657C386.062 315.969 392.357 309.895 399.094 304.327C410.667 294.756 424.129 286.749 439.629 286.744C446.207 286.649 452.669 288.477 458.222 292.004C464.344 296.042 468.58 302.369 470.808 309.295C475.642 324.155 471.664 339.541 464.969 353.102C461.64 359.85 457.695 366.271 453.767 372.664C453.114 373.684 454.748 374.59 455.379 373.575Z" fill="white"/>
<path d="M631.12 232.402C649.801 248.556 668.394 266.028 677.448 289.04C686.501 312.052 685.705 339.85 671.059 359.723C656.629 379.349 631.769 388.274 607.789 392.542C583.808 396.81 558.989 397.567 536.049 405.759C488.855 422.602 455.929 472.914 459.378 522.9C460.408 537.836 464.322 552.54 464.235 567.512C464.148 582.485 459.051 598.66 446.41 606.686C434.698 614.129 419.612 612.851 405.922 610.527C377.387 605.678 348.891 597.193 325.163 580.61C301.434 564.028 282.903 538.451 279.774 509.669C276.502 479.689 290.48 449.367 312.623 428.886C334.766 408.405 364.183 397.086 394.003 392.617C422.116 388.399 455.598 387.365 471.128 363.568C480.77 348.769 479.82 329.794 481.978 312.261C484.136 294.729 492.606 274.944 509.899 271.311C530.601 266.993 554.906 287.884 571.071 274.252C588.52 259.538 571.805 221.737 592.832 212.939C605.684 207.564 622.996 225.381 631.12 232.402Z" fill="#FDDC4E"/>
<path d="M756.125 269.782C749.954 258.194 742.676 246.959 733.176 237.799C724.542 229.477 714.057 222.959 701.996 221.275C691.402 219.818 679.907 221.697 671.202 228.203C662.857 234.419 658.732 243.942 657.135 253.986C655.488 264.244 655.987 274.734 654.559 285.049C653.955 290.162 652.592 295.156 650.515 299.867C647.661 305.759 643.606 310.989 638.611 315.221C627.833 324.625 614.218 329.608 600.953 334.4C587.688 339.192 574.143 344.193 562.893 353.015C553.263 360.425 546.359 370.817 543.261 382.567C540.456 393.604 540.718 405.197 544.019 416.096C551.433 440.643 573.206 458.469 597.139 465.892C609.251 469.543 621.891 471.135 634.53 470.602C648.008 470.227 661.344 467.741 674.051 463.233C686.826 458.57 698.744 451.318 707.633 440.905C716.054 431.041 721.557 419.157 725.906 407.019C728.118 400.865 729.981 394.605 732.007 388.393C733.967 382.283 736.906 376.533 740.709 371.365C746.807 363.137 755.003 356.654 760.628 347.998C767.481 337.424 770.516 324.251 770.051 311.723C769.671 300.977 766.44 290.62 761.857 280.928C760.07 277.142 758.079 273.452 756.091 269.768C755.433 268.528 753.559 269.639 754.217 270.878C758.554 279.027 762.817 287.195 765.337 296.125C768.639 307.747 768.68 320.052 765.456 331.695C763.887 337.503 761.37 343.012 758.004 347.999C755.162 352.163 751.68 355.846 748.227 359.477C744.691 363.073 741.407 366.907 738.397 370.953C734.913 375.85 732.173 381.235 730.265 386.934C728.194 393.013 726.443 399.19 724.292 405.249C722.195 411.293 719.708 417.195 716.847 422.917C710.854 434.744 702.534 445.006 691.368 452.302C679.923 459.78 666.685 464.134 653.288 466.465C640.956 468.68 628.367 469.087 615.918 467.675C591.015 464.7 566.705 452.394 553.088 430.726C541.052 411.557 539.725 385.531 552.885 366.512C560.576 355.401 572.621 348.208 584.789 342.918C598.175 337.092 612.435 333.381 625.427 326.633C636.29 320.993 646.563 312.858 652.067 301.674C656.568 292.502 657.292 282.139 657.822 272.104C658.338 262.287 658.504 251.951 662.495 242.786C666.738 233.049 675.178 226.523 685.455 224.125C696.206 221.679 707.481 223.247 717.156 228.534C728.422 234.732 737.386 244.353 744.617 254.839C748.141 260.01 751.368 265.378 754.281 270.915C754.964 272.097 756.835 270.981 756.125 269.782Z" fill="#58BBAE"/>
<path d="M522.919 430.743C511.591 436.416 501.435 444.175 492.982 453.612C484.461 463.055 477.676 473.93 472.94 485.735C468.198 497.479 465.692 510.005 465.553 522.669C465.433 538.142 469.065 553.267 470.514 568.596C471.768 581.829 471.391 595.927 465.552 608.128C464.856 609.575 464.087 610.993 463.243 612.381C462.514 613.572 464.416 614.632 465.152 613.437C472.132 601.952 473.752 588.157 473.144 574.946C472.453 559.785 468.862 544.914 467.931 529.777C467.169 516.905 468.911 504.007 473.062 491.799C477.129 479.845 483.309 468.719 491.308 458.95C499.26 449.167 508.986 440.971 519.974 434.791C521.311 434.042 522.676 433.326 524.047 432.649C525.305 432.022 524.189 430.151 522.937 430.774L522.919 430.743Z" fill="#FDDC4E"/>
</svg>
